<?xml version="1.0" encoding="utf-8"?>
<!-- Generator: Adobe Illustrator 16.0.0, SVG Export Plug-In . SVG Version: 6.00 Build 0)  -->
<!DOCTYPE svg PUBLIC "-//W3C//DTD SVG 1.1//EN" "http://www.w3.org/Graphics/SVG/1.1/DTD/svg11.dtd">
<svg version="1.1" id="图层_1" xmlns="http://www.w3.org/2000/svg" xmlns:xlink="http://www.w3.org/1999/xlink" x="0px" y="0px"
	 width="167.647px" height="172.794px" viewBox="0 0 167.647 172.794" enable-background="new 0 0 167.647 172.794"
	 xml:space="preserve">
<path fill="#FFFFFF" d="M139.141,49.647h-23.02c1.416-2.419,2.149-5.211,2.149-7.938c0-7.191-4.95-14.468-14.413-14.468
	c-4.375,0-8.092,1.524-11.057,4.534c-1.59,1.613-2.799,3.544-3.75,5.564c-0.927-2.019-2.112-3.947-3.677-5.559
	c-2.935-3.011-6.634-4.54-11.007-4.54c-5.605,0-8.988,2.5-10.838,4.602c-2.306,2.611-3.574,6.112-3.574,9.866
	c0,2.728,0.735,5.52,2.15,7.938H40.629c-1.901,0-3.442,1.539-3.442,3.44v31.291c0,1.902,1.541,3.442,3.442,3.442h4.671v44.077
	c0,1.901,1.537,3.444,3.438,3.444h31.684h18.93h31.68c1.901,0,3.438-1.543,3.438-3.444V87.82h4.672c1.9,0,3.444-1.54,3.444-3.442
	V53.087C142.585,51.186,141.042,49.647,139.141,49.647z M97.709,36.606c1.639-1.669,3.65-2.485,6.148-2.485
	c5.556,0,7.529,4.085,7.529,7.587c0,2.103-0.707,4.13-1.94,5.562c-1.353,1.575-3.226,2.372-5.576,2.376l-10.981-0.09
	C93.303,45.551,94.557,39.798,97.709,36.606z M68.694,36.391c1.328-1.5,3.235-2.27,5.674-2.27c2.472,0,4.452,0.799,6.059,2.448
	c3.116,3.195,4.305,9.026,4.678,13.078h-4.683h-6.055c-5.944,0-7.528-4.991-7.528-7.938C66.84,39.635,67.497,37.75,68.694,36.391z
	 M127.588,128.458H52.181V87.82H82.56h2.387h42.642V128.458z M135.7,80.94H84.947H82.56H44.067V56.529H135.7V80.94z"/>
</svg>
